<?xml version="1.0" encoding="utf-8"?>
<!-- Generator: Adobe Illustrator 19.1.0, SVG Export Plug-In . SVG Version: 6.00 Build 0)  -->
<svg version="1.1" id="Layer_1" xmlns="http://www.w3.org/2000/svg" xmlns:xlink="http://www.w3.org/1999/xlink" x="0px" y="0px"
	 viewBox="0 0 513.16 1211.76" enable-background="new 0 0 513.16 1211.76" xml:space="preserve">
<path fill="#F6B09D" d="M331.15,741.69c19.91,57.13,11.82,104.74-26.27,195.64c-39.93,95.28-35.57,104.13-48.48,178.32h0
	c-12.9-74.19-8.55-83.04-48.48-178.32c-38.09-90.89-45.91-138.51-26-195.64H331.15z"/>
<path fill="#F6B09D" d="M116.86,798.63c5.11,57.13,4.07,104.74-5.71,195.64c-10.25,95.28-9.13,104.13-12.44,178.32h0
	c-3.31-74.19-2.19-83.04-12.44-178.32c-9.77-90.89-10.78-138.51-5.67-195.64H116.86z"/>
<path fill="#F6B09D" d="M432.39,798.63c5.11,57.13,4.11,104.74-5.67,195.64c-10.25,95.28-9.13,104.13-12.44,178.32l0,0
	c-3.31-74.19-2.19-83.04-12.44-178.32c-9.77-90.89-10.78-138.51-5.67-195.64H432.39z"/>
<path fill="#EEEEAF" d="M256.41,1032.37c-4.26-24.31-11.11-51.04-26.82-100.53c-15.28-48.13-23.13-80.17-26.26-107.15
	c-2.82-24.29-1.84-45.91,3.2-83.51h99.75c5.05,37.6,6.02,59.22,3.21,83.51c-3.13,26.97-10.98,59.02-26.26,107.15
	C267.52,981.33,260.67,1008.06,256.41,1032.37L256.41,1032.37z"/>
<path fill="#EEEEAF" d="M98.72,1089.16c-1.09-24.31-2.85-51.04-6.88-100.53c-3.92-48.13-5.93-80.17-6.74-107.15
	c-0.72-24.29-0.47-45.91,0.82-82.74h25.59c1.29,36.82,1.55,58.44,0.82,82.74c-0.8,26.97-2.82,59.02-6.74,107.15
	C101.57,1038.12,99.81,1064.85,98.72,1089.16L98.72,1089.16z"/>
<path fill="#EEEEAF" d="M414.28,1089.09c-1.09-24.31-2.85-51.04-6.88-100.53c-3.92-48.13-5.93-80.17-6.74-107.15
	c-0.72-24.29-0.47-45.91,0.82-82.74h25.59c1.3,36.82,1.55,58.44,0.82,82.74c-0.8,26.97-2.82,59.02-6.74,107.15
	C417.13,1038.05,415.37,1064.78,414.28,1089.09L414.28,1089.09z"/>
<path fill="#EA5046" d="M331.11,741.7c0.54-6.37,3.27-30.94-3.45-45.91c-6.72-14.98-8.39-24.65-6.83-33.5
	c0,0,38.03-311.05,37.16-355.06c-1.84-92.66-72.92-154.29-101.59-169.86c-28.82,15.74-99.75,77.21-101.59,169.86
	c-0.87,44,37.36,355.06,37.36,355.06c1.56,8.85-0.11,18.52-6.83,33.5c-6.72,14.97-3.99,39.54-3.45,45.91H331.11z"/>
<path fill="#C44139" d="M310.61,642.49c2.33,2.71,19.41,16.06,33.31,34.82c12.64,17.07,23.14,58.36,33.83,77.95
	c4.77,8.77,16.56,7.66,16.56,7.66s23.87-64.89-2.54-133.26c-18.6-48.15-52.14-85.5-66.32-99.06
	C307.65,553.91,295.78,620.87,310.61,642.49z"/>
<path fill="#EA5046" d="M432.41,798.96c3.35-57.16,6.66-112.8,6.18-155.67c-0.51-46.38-16.21-77.14-24.3-85.02
	c-8.05,7.8-23.79,38.65-24.3,85.02c-0.48,42.87,2.83,98.51,6.18,155.67H432.41z"/>
<path fill="#C44139" d="M202.4,642.49c-2.33,2.71-19.41,16.06-33.31,34.82c-12.64,17.07-23.14,58.36-33.83,77.95
	c-4.77,8.77-16.56,7.66-16.56,7.66s-23.87-64.89,2.54-133.26c18.6-48.15,52.14-85.5,66.33-99.06
	C205.37,553.91,217.24,620.87,202.4,642.49z"/>
<path fill="#EA5046" d="M80.61,798.96c-3.35-57.16-6.66-112.8-6.18-155.67c0.51-46.38,16.21-77.14,24.3-85.02
	c8.05,7.8,23.79,38.65,24.3,85.02c0.48,42.87-2.83,98.51-6.18,155.67H80.61z"/>
<g>
	<path fill="#EF786A" d="M256.47,215.64c-3.31,0-6-2.38-6-5.32V57.46c0-2.94,2.69-5.32,6-5.32s6,2.38,6,5.32v152.86
		C262.47,213.26,259.78,215.64,256.47,215.64L256.47,215.64z"/>
</g>
<circle fill="#EF786A" cx="256.39" cy="57.17" r="16.38"/>
<circle fill="#EF786A" cx="256.39" cy="138.66" r="10.91"/>
<path fill="#EF786A" d="M341.96,235.53c-23.09-52.51-65.1-87.05-85.56-98.16c-20.55,11.23-62.51,45.71-85.57,98.16
	c19.57-5.05,47.4-11.45,86.08-11.45C296.5,224.09,323.8,230.21,341.96,235.53z"/>
<circle fill="#CC414E" cx="256.51" cy="283.85" r="29.71"/>
<circle fill="#CC414E" cx="256.51" cy="352.51" r="29.71"/>
<circle fill="#CC414E" cx="256.51" cy="421.17" r="29.71"/>
<circle fill="#61B1B7" cx="256.51" cy="283.85" r="22.68"/>
<circle fill="#61B1B7" cx="256.51" cy="352.51" r="22.68"/>
<circle fill="#61B1B7" cx="256.51" cy="421.17" r="22.68"/>
<path fill="#477779" d="M252.97,299.27c-4.24,0-8.15-1.39-11.31-3.74c3.46,4.64,8.99,7.65,15.22,7.65
	c10.47,0,18.96-8.49,18.96-18.96c0-6.23-3.01-11.76-7.65-15.22c2.35,3.16,3.74,7.07,3.74,11.31
	C271.94,290.78,263.45,299.27,252.97,299.27z"/>
<path fill="#477779" d="M268.19,337.66c2.35,3.16,3.74,7.07,3.74,11.31c0,10.47-8.49,18.96-18.96,18.96
	c-4.24,0-8.15-1.39-11.31-3.74c3.46,4.64,8.99,7.65,15.22,7.65c10.47,0,18.96-8.49,18.96-18.96
	C275.84,346.64,272.83,341.11,268.19,337.66z"/>
<path fill="#477779" d="M268.19,406.32c2.35,3.16,3.74,7.07,3.74,11.31c0,10.47-8.49,18.96-18.96,18.96
	c-4.24,0-8.15-1.39-11.31-3.74c3.46,4.64,8.99,7.65,15.22,7.65c10.47,0,18.96-8.49,18.96-18.96
	C275.84,415.3,272.83,409.77,268.19,406.32z"/>
<path fill="#C44139" d="M185.34,695.79c-6.72,14.97-3.99,39.54-3.45,45.91h149.22c0.54-6.37,3.27-30.94-3.45-45.91
	c-2.35-5.23-4.07-9.8-5.26-13.93H190.6C189.4,685.99,187.68,690.56,185.34,695.79z"/>
<path fill="#EA5046" d="M215.13,695.29c-0.06-5.11-0.7-9.6-1.61-13.43h-12.3c-0.91,3.83-1.55,8.33-1.61,13.43
	c-0.14,12.86,0.78,29.33,1.78,46.41h11.96C214.35,724.62,215.28,708.16,215.13,695.29z"/>
<path fill="#EA5046" d="M247.82,695.29c-0.06-5.11-0.7-9.6-1.61-13.43h-12.3c-0.91,3.83-1.55,8.33-1.61,13.43
	c-0.14,12.86,0.78,29.33,1.78,46.41h11.96C247.04,724.62,247.96,708.16,247.82,695.29z"/>
<path fill="#EA5046" d="M280.5,695.29c-0.06-5.11-0.7-9.6-1.61-13.43h-12.3c-0.91,3.83-1.55,8.33-1.61,13.43
	c-0.14,12.86,0.78,29.33,1.78,46.41h11.96C279.72,724.62,280.65,708.16,280.5,695.29z"/>
<path fill="#EA5046" d="M313.19,695.29c-0.06-5.11-0.7-9.6-1.61-13.43h-12.3c-0.91,3.83-1.55,8.33-1.61,13.43
	c-0.14,12.86,0.78,29.33,1.78,46.41h11.96C312.41,724.62,313.33,708.16,313.19,695.29z"/>
</svg>
