<?xml version="1.0" encoding="utf-8"?>
<!-- Generator: Adobe Illustrator 19.1.0, SVG Export Plug-In . SVG Version: 6.00 Build 0)  -->
<svg version="1.1" id="Layer_1" xmlns="http://www.w3.org/2000/svg" xmlns:xlink="http://www.w3.org/1999/xlink" x="0px" y="0px"
	 viewBox="0 0 925 925" enable-background="new 0 0 925 925" xml:space="preserve">
<circle fill="#F9EABD" cx="462.5" cy="462.5" r="425.13"/>
<path fill="#EEE7BC" d="M594.57,126.16c-17.62,20.22-28.13,51.4-43.04,73.61c-21.32,31.76-44.46,61.31-63.01,94.9
	c-31.61,57.22-60.33,116.18-71.31,181.15c36.09-93.11,101.25-166.63,145.11-254.93c13.03-26.23,30.19-47.6,45.27-72.28
	c7.04-11.51,21.96-28.07,19.5-42.16c-15.52-2.98-22.61,13.21-33.68,20.75L594.57,126.16z"/>
<path fill="#EEE7BC" d="M263.91,789.45c5.86-6.61,7.59-17.35,10.36-26.06c10.38-32.62,21.06-63.97,35.05-95.34
	c28.26-63.36,64.93-124.4,105.21-180.82c44.36-62.13,89.95-130.26,151.78-176.36c-2.1,12.55-15.21,28.37-22.19,39.95
	c-19.31,32.04-39.47,63.16-57.22,96.11c-31.58,58.64-63.53,116.51-93.76,175.86c-19.43,38.14-34.76,78.49-54.92,116.26
	c-8.27,15.49-17.63,37.74-30.74,49.02c-9.73-7.84-14.43-6.75-20.95-19.62L263.91,789.45z"/>
<path fill="#EEE7BC" d="M787.25,219.26c-19.11,8.14-28.38,37.78-41.64,54.97c-22.84,29.63-42.7,62.14-63.47,93.31
	c-23.52,35.29-46.29,74.47-54.55,116.36c27.75-87.54,102.08-157.77,164.62-221.14c21.68-21.97,30.82-58.27-4.34-44.56L787.25,219.26
	z"/>
<path fill="#EEE7BC" d="M265.41,261.38c42.88-43.91,91.98-87.98,128.73-137.26c-22,10.04-43.26,31.5-62.53,46.44
	c-46.2,35.84-86.31,81.41-125.86,124.43c-47.27,51.42-89.86,104.8-125.47,164.99c-11.3,19.09-22.96,44.57-38.71,62.44
	c3.06,21.73,7.78,42.92,14,63.47c26.62-51.25,51.09-108.42,77.15-161.28C163.44,362.25,217.31,310.63,265.41,261.38z"/>
<path fill="#EEE7BC" d="M265.97,421.13c50.94-66.64,94.45-138.51,144.92-205.1c21.93-28.93,47.33-54.63,73.02-80.29
	c14.88-14.86,31.11-34.31,48.86-48.03c-0.75,0.37-1.51,0.75-2.26,1.16c-18.21,9.79-21.63,14.34-38.78,26.57
	c-62.32,44.47-117.21,90.19-171.65,144.08c-36.59,36.22-64.17,80.91-93.68,122.85c-31.13,44.25-59.76,90.53-83.63,138.98
	c-15.67,31.8-35.58,61.83-50.43,93.65c-4.19,8.98-8.31,21.93-14.33,29.09c6.97,14.74,14.77,29.02,23.33,42.77
	c15.6-25.34,28.87-55.65,41.84-81.83C175.38,540.01,221.94,478.74,265.97,421.13z"/>
</svg>
