<?xml version="1.0" encoding="utf-8"?>
<!-- Generator: Adobe Illustrator 19.1.0, SVG Export Plug-In . SVG Version: 6.00 Build 0)  -->
<svg version="1.1" id="Layer_1" xmlns="http://www.w3.org/2000/svg" xmlns:xlink="http://www.w3.org/1999/xlink" x="0px" y="0px"
	 viewBox="0 0 520.41 392.94" enable-background="new 0 0 520.41 392.94" xml:space="preserve">
<circle fill="#E2D687" cx="261.86" cy="214.6" r="105.36"/>
<g>
	<defs>
		<circle id="SVGID_1_" cx="261.86" cy="214.6" r="105.36"/>
	</defs>
	<clipPath id="SVGID_2_">
		<use xlink:href="#SVGID_1_"  overflow="visible"/>
	</clipPath>
	<path clip-path="url(#SVGID_2_)" fill="#CEC273" d="M312.2,118.35c-6.01,2.67-16.11,6.13-20.05,11.95
		c-10.72,15.86,0.22,8.69,6.09,20.05c7.98,15.44,13.4,11.69,6.32,39.65c-5.39,10.89,27.04,13.38,27.88,28.34
		c0.4,7.19-25.81,8.68-34.34,0.04c-5.89-5.97-2.81-16.4-7.8-22.14c-4.01-4.61-10.73-10.33-16.43-8.19
		c-5.7,2.14-3.54,10.35-7.13,16.39c-3.59,6.05-7.76-0.1-19.74,1.73c-11.98,1.83-15.34-28.45-28.45-15.83
		c-2.56,2.46-4.16,15.14-6.84,19.48c-2.47,4-9.3,6.67-11,11c-5.01,12.78,16.44,23.16,18.99,37.78c2.27,13.05-13.8,19.94-1.2,27.61
		c12.6,7.67-6.29,11.64-6.29,38.1c0,4,98,42,98,42l134-124l-42-126L312.2,118.35z"/>
</g>
<path fill="#CEC273" d="M261.38,172.12c-2.24,1.81-0.9,5.99-1.07,6.42c-2.07,5.2-5.31,3.5-5.65,8.67
	c23.09,4.8,27.78-32.89,13.38-23.77C253.64,172.56,266.29,168.15,261.38,172.12z"/>
<path fill="#A9D3C5" d="M367.19,215.97c-0.08,6.27-0.71,12.4-1.84,18.36c38.3,36.49,60.09,65.51,53.82,74.84
	c-10.05,14.95-88.29-26.26-174.76-92.04C157.95,151.35,95.99,85.9,106.04,70.95c7.53-11.2,53.35,9.13,112.24,47.71
	c4.4-2,8.96-3.71,13.66-5.1C127.56,42.55,41.31,2.35,27.66,20.86C11.5,42.77,103.17,138.62,232.41,234.95
	c129.24,96.33,247.1,156.66,263.26,134.75C508.4,352.43,454.09,289.18,367.19,215.97z"/>
</svg>
